<?xml version="1.0" standalone="no"?><!DOCTYPE svg PUBLIC "-//W3C//DTD SVG 1.1//EN" "http://www.w3.org/Graphics/SVG/1.1/DTD/svg11.dtd"><svg t="1568847890493" class="icon" viewBox="0 0 1024 1024" version="1.1" xmlns="http://www.w3.org/2000/svg" p-id="3098" xmlns:xlink="http://www.w3.org/1999/xlink" width="200" height="200"><defs><style type="text/css"></style></defs><path d="M526.34624 260.164267V215.968427c0-3.464533 29.187413-104.779093 29.187413-104.779094L478.201173 135.509333l-41.444693-50.18624-41.915733 51.401387-82.486614-25.535147s31.1296 103.29088 31.1296 104.779094V260.164267C186.228053 299.83744 68.266667 443.47392 68.266667 614.608213c0 201.775787 164.222293 308.82816 365.991253 308.82816s366.98112-107.04896 366.98112-308.82816c0-171.134293-117.633707-314.76736-274.8928-354.443946z" fill="#FF1224" p-id="3099"></path><path d="M434.25792 943.91296c-106.61888 0-202.96704-29.515093-271.29856-83.114667C87.61344 801.703253 47.786667 716.571307 47.786667 614.608213c0-87.671467 28.716373-170.386773 83.042986-239.2064 49.216853-62.35136 116.988587-108.376747 192.177494-130.833066v-25.985707c-3.304107-11.748693-19.84512-66.921813-30.2592-101.4784a20.483413 20.483413 0 0 1 25.664853-25.473707l69.287253 21.449387 33.184427-40.69376a20.476587 20.476587 0 0 1 15.807147-7.53664h0.064853c6.109867 0 11.89888 2.727253 15.79008 7.441067l32.662187 39.550293 64.180906-20.18304a20.48 20.48 0 0 1 25.821867 25.207467c-12.335787 42.816853-26.006187 91.16672-28.38528 101.102933v26.589867c162.648747 48.285013 274.8928 198.202027 274.8928 370.05312 0 101.92896-40.00768 187.071147-115.698347 246.217386-68.56704 53.57568-165.07904 83.083947-271.762773 83.083947zM343.063893 142.134613c20.906667 69.50912 20.903253 70.294187 20.903254 73.833814V260.164267a20.48 20.48 0 0 1-15.469227 19.858773C195.560107 318.60736 88.746667 456.192 88.746667 614.608213c0 175.162027 135.621973 288.34816 345.511253 288.34816 159.8464 0 346.50112-75.516587 346.50112-288.34816 0-158.460587-106.68032-296.045227-259.423573-334.58176a20.48 20.48 0 0 1-15.469227-19.858773V215.968427c0-3.075413 0-5.587627 19.47648-73.813334l-41.00096 12.89216a20.49024 20.49024 0 0 1-21.93408-6.495573l-25.552213-30.941867-26.14272 32.06144a20.46976 20.46976 0 0 1-21.927254 6.618454l-45.7216-14.155094z" fill="#C60000" p-id="3100"></path><path d="M162.689707 715.772587a20.452693 20.452693 0 0 1-19.268267-13.585067c-2.338133-6.56384-55.917227-162.300587 64.607573-296.38656a20.48 20.48 0 1 1 30.464 27.378347c-103.850667 115.53792-58.453333 249.6512-56.470186 255.300266 3.7376 10.656427-1.8432 22.350507-12.489387 26.112a20.452693 20.452693 0 0 1-6.843733 1.181014z" fill="#FFFFFF" p-id="3101"></path><path d="M273.527467 370.971307m-24.09472 0a24.09472 24.09472 0 1 0 48.18944 0 24.09472 24.09472 0 1 0-48.18944 0Z" fill="#FFFFFF" p-id="3102"></path><path d="M653.032107 698.965333c-107.32544 57.975467-182.016 144.892587-205.673814 227.580587 81.896107 25.658027 195.375787 10.898773 302.6944-47.069867 107.32544-57.97888 182.012587-144.896 205.68064-227.590826-81.923413-25.647787-195.38944-10.909013-302.701226 47.080106z" fill="#49B510" p-id="3103"></path><path d="M532.69504 959.153493h-0.013653c-33.010347 0-63.778133-4.396373-91.446614-13.062826a20.483413 20.483413 0 0 1-13.568-25.176747c26.170027-91.456853 106.779307-181.162667 215.630507-239.967573 73.588053-39.765333 154.238293-61.66528 227.085653-61.66528 33.010347 0 63.78496 4.39296 91.467094 13.062826a20.483413 20.483413 0 0 1 13.571413 25.18016c-26.176853 91.460267-106.786133 181.169493-215.637333 239.9744-73.60512 39.758507-154.262187 61.65504-227.089067 61.65504z m-58.917547-46.83776c18.292053 3.904853 38.02112 5.87776 58.907307 5.87776h0.01024c66.157227 0 139.88864-20.145493 207.62624-56.736426 89.767253-48.493227 160.293547-121.883307 188.992853-195.33824-18.302293-3.908267-38.0416-5.881173-58.927786-5.881174-66.17088 0-139.902293 20.15232-207.616 56.743254-89.77408 48.500053-160.300373 121.88672-188.992854 195.334826z" fill="#0F5108" p-id="3104"></path><path d="M571.52512 641.45408c-85.753173 86.756693-131.85024 191.675733-130.36544 277.674667 85.82144 0.65536 190.06464-46.547627 275.810987-133.297494 85.74976-86.76352 131.843413-191.675733 130.372266-277.674666-85.84192-0.651947-190.078293 46.533973-275.817813 133.297493z" fill="#3A960F" p-id="3105"></path><path d="M442.938027 939.61216h-0.006827l-1.92512-0.006827a20.48 20.48 0 0 1-20.319573-20.125013c-1.641813-95.10912 49.302187-204.43136 136.277333-292.42368 86.248107-87.278933 194.143573-139.38688 288.621227-139.38688l1.921706 0.006827a20.48 20.48 0 0 1 20.319574 20.128426c1.62816 95.112533-49.319253 204.43136-136.28416 292.420267-86.275413 87.278933-194.164053 139.38688-288.60416 139.38688z m383.286613-410.1632c-79.080107 6.611627-167.406933 52.80768-240.131413 126.399147-71.74144 72.58112-117.80096 163.351893-123.815254 241.984853 79.056213-6.6048 167.376213-52.800853 240.124587-126.399147 71.727787-72.574293 117.787307-163.351893 123.82208-241.984853z" fill="#0F5108" p-id="3106"></path><path d="M443.450027 914.496853s128-90.210987 228.212053-186.28608c100.317867-96.167253 160.669013-213.56544 160.669013-213.56544" fill="#3A960F" p-id="3107"></path><path d="M443.467093 934.976853a20.48 20.48 0 0 1-11.81696-37.218986c1.26976-0.894293 127.945387-90.477227 225.839787-184.33024 96.505173-92.514987 156.043947-207.008427 156.634453-208.151894a20.48 20.48 0 0 1 36.42368 18.732374c-2.525867 4.918613-63.085227 121.56928-164.7104 218.985813-100.171093 96.034133-229.297493 187.333973-230.587733 188.24192a20.401493 20.401493 0 0 1-11.782827 3.741013z" fill="#0F5108" p-id="3108"></path></svg>